<?xml version="1.0" encoding="UTF-8" standalone="no"?>
<!DOCTYPE svg  PUBLIC '-//W3C//DTD SVG 1.1//EN'  'http://www.w3.org/Graphics/SVG/1.1/DTD/svg11.dtd'>
<svg stroke-linejoin="round" xmlns="http://www.w3.org/2000/svg" clip-rule="evenodd" fill-rule="evenodd" xml:space="preserve" height="100%" width="100%" version="1.1" xmlns:serif="http://www.serif.com/" stroke-miterlimit="1.4142" xmlns:xlink="http://www.w3.org/1999/xlink" viewBox="0 0 495 134"><g fill-rule="nonzero"><path fill="#fff" d="m26.822 7.65v6.704h-20.117v-6.704h20.117zm-26.822 26.82h33.529v-6.706h-26.824v-6.706h26.824v-20.115h-33.529v33.527z"/><path fill="#fff" d="m66.963 7.648v20.095h6.707v-26.801h-6.707v6.706z"/><path fill="#fff" d="m46.848 0.942h-6.706v33.529h26.8v-6.706h-20.094v-26.823z"/><path fill="#fff" d="m120.42 0.942v33.529h6.706v-26.823h20.115v26.823h6.707v-33.529h-33.528z"/><path fill="#fff" d="m87.097 27.763v-6.704h20.117v6.704h-20.117zm-6.706-20.115h26.823v6.707h-26.823v20.115h33.529v-33.527h-33.529v6.705z"/><rect height="6.657" width="148.29" y="47.854" x="80.342" fill="#64c6c1"/><rect height="6.657" width="55.055" y="41.174" x="439.65" fill="#64c6c1"/><rect height="6.656" width="56.985" y="27.849" x="382.66" fill="#64c6c1"/><rect height="6.656" width="36.611" y="74.521" x="346.05" fill="#64c6c1"/><rect height="6.658" width="6.552" y="127.34" x="339.5" fill="#64c6c1"/><rect height="6.657" width="24.342" y="41.174" x="315.16" fill="#64c6c1"/><rect height="6.657" width="59.826" y="61.118" x="256.11" fill="#64c6c1"/><rect height="6.656" width="26.5" y="74.521" x="229.61" fill="#64c6c1"/><path fill="#fff" d="m6.147 54.503h-1.815v-3.887c0-0.479-0.085-0.84-0.255-1.08-0.171-0.239-0.443-0.359-0.816-0.359-0.508 0-0.874 0.169-1.101 0.509-0.226 0.339-0.339 0.901-0.339 1.686v3.131h-1.815v-6.653h1.386l0.245 0.85h0.101c0.202-0.321 0.481-0.564 0.836-0.728 0.355-0.165 0.758-0.247 1.211-0.247 0.773 0 1.361 0.209 1.761 0.628 0.401 0.418 0.601 1.022 0.601 1.811v4.339z"/><path fill="#fff" d="m14.793 49.016c-0.384 0-0.686 0.122-0.904 0.366-0.219 0.244-0.343 0.59-0.375 1.038h2.547c-0.008-0.448-0.125-0.794-0.351-1.038s-0.532-0.366-0.917-0.366zm0.256 5.606c-1.071 0-1.908-0.296-2.511-0.887s-0.905-1.428-0.905-2.511c0-1.115 0.279-1.977 0.837-2.586 0.557-0.609 1.327-0.913 2.312-0.913 0.94 0 1.672 0.267 2.195 0.802 0.524 0.537 0.786 1.277 0.786 2.22v0.881h-4.291c0.02 0.516 0.173 0.919 0.459 1.208 0.285 0.29 0.686 0.435 1.202 0.435 0.4 0 0.779-0.041 1.136-0.125 0.357-0.083 0.73-0.216 1.119-0.399v1.404c-0.317 0.16-0.657 0.277-1.017 0.355-0.362 0.077-0.802 0.116-1.322 0.116z"/><path fill="#fff" d="m26.063 53.176c0.318 0 0.699-0.069 1.143-0.209v1.351c-0.452 0.203-1.007 0.304-1.666 0.304-0.726 0-1.255-0.183-1.586-0.551-0.332-0.367-0.497-0.918-0.497-1.651v-3.208h-0.869v-0.768l1-0.606 0.524-1.405h1.16v1.417h1.863v1.362h-1.863v3.208c0 0.258 0.073 0.448 0.217 0.571 0.145 0.123 0.337 0.185 0.574 0.185z"/><path fill="#fff" d="m38.042 54.503l-0.512-2.327-0.69-2.94h-0.042l-1.214 5.267h-1.952l-1.892-6.653h1.809l0.768 2.945c0.122 0.527 0.247 1.256 0.374 2.185h0.036c0.016-0.302 0.085-0.781 0.208-1.435l0.096-0.506 0.821-3.189h1.999l0.78 3.189c0.016 0.087 0.041 0.216 0.074 0.387 0.034 0.171 0.067 0.352 0.099 0.545 0.031 0.192 0.06 0.381 0.086 0.565 0.026 0.185 0.041 0.332 0.044 0.444h0.036c0.036-0.287 0.099-0.678 0.191-1.176 0.091-0.498 0.156-0.834 0.196-1.009l0.798-2.945h1.779l-1.917 6.653h-1.975z"/><path fill="#fff" d="m48.473 51.164c0 0.658 0.108 1.156 0.324 1.494 0.217 0.337 0.569 0.506 1.057 0.506 0.484 0 0.832-0.168 1.044-0.503 0.212-0.336 0.319-0.835 0.319-1.497 0-0.658-0.108-1.152-0.322-1.481-0.214-0.33-0.565-0.494-1.053-0.494-0.484 0-0.833 0.163-1.048 0.491-0.214 0.327-0.321 0.822-0.321 1.484zm4.6 0c0 1.083-0.285 1.93-0.857 2.541-0.571 0.612-1.366 0.917-2.386 0.917-0.639 0-1.202-0.14-1.69-0.42s-0.863-0.681-1.125-1.205c-0.262-0.523-0.393-1.135-0.393-1.833 0-1.087 0.284-1.931 0.851-2.535s1.365-0.904 2.393-0.904c0.638 0 1.202 0.138 1.69 0.416s0.862 0.676 1.125 1.196c0.261 0.52 0.392 1.129 0.392 1.827z"/><path fill="#fff" d="m62.308 47.725c0.246 0 0.451 0.017 0.613 0.053l-0.137 1.702c-0.146-0.039-0.325-0.06-0.536-0.06-0.579 0-1.03 0.149-1.353 0.447-0.323 0.297-0.485 0.714-0.485 1.249v3.387h-1.815v-6.653h1.375l0.267 1.118h0.09c0.206-0.373 0.484-0.673 0.836-0.901 0.351-0.228 0.732-0.342 1.145-0.342z"/><path fill="#fff" d="m69.895 50.885l0.791-1.012 1.863-2.023h2.047l-2.642 2.885 2.803 3.768h-2.095l-1.916-2.696-0.78 0.625v2.071h-1.815v-9.26h1.815v4.13l-0.095 1.512h0.024z"/></g></svg>
